<svg width="272" height="60" viewBox="0 0 272 60" fill="none" xmlns="http://www.w3.org/2000/svg">
<path d="M120.44 27L119.14 29.5366C118.993 29.8123 118.729 29.7867 118.464 29.6327L117.524 29.1229L118.225 33.0191C118.372 33.7309 117.899 33.7309 117.666 33.4231L116.024 31.4994L115.757 32.4763C115.727 32.6046 115.591 32.7393 115.389 32.7073L113.313 32.2504L113.858 34.3253C113.975 34.787 114.066 34.9782 113.74 35.0999L113 35.4639L116.574 38.5022C116.715 38.6171 116.787 38.8238 116.736 39.011L116.424 40.0853C117.654 39.9368 118.758 39.804 119.988 39.6557C120.097 39.6543 120.279 39.7515 120.278 39.8833L120.115 43.8192H120.713L120.619 39.8918C120.618 39.7599 120.783 39.6543 120.892 39.6557C122.123 39.8039 123.226 39.9368 124.456 40.0853L124.144 39.011C124.093 38.8238 124.165 38.6171 124.306 38.5022L127.88 35.4639L127.14 35.0999C126.815 34.9781 126.906 34.787 127.022 34.3253L127.568 32.2504L125.491 32.7073C125.289 32.7394 125.154 32.6046 125.123 32.4763L124.856 31.4994L123.214 33.4231C122.981 33.7309 122.508 33.7309 122.655 33.0191L123.356 29.1229L122.416 29.6327C122.151 29.7867 121.887 29.8123 121.74 29.5366" fill="#FF0000"/>
<path d="M10.3125 17.2188C8.875 17.2188 7.73438 17.2812 6.89062 17.4062C6.34375 17.4844 5.84375 17.7031 5.39062 18.0625C4.95312 18.4219 4.57031 18.8281 4.24219 19.2812C3.92969 19.7344 3.54688 20.3438 3.09375 21.1094C2.625 21.9375 2.21875 22.5625 1.875 22.9844H0.796875L1.38281 15.3438C3.96094 15.4531 7.28906 15.5078 11.3672 15.5078L20.5078 15.4844H23.5781C26.7344 15.4844 29.2891 15.4219 31.2422 15.2969L31.9922 23.0078H30.8672C30.6328 22.7266 30.3906 22.375 30.1406 21.9531C29.8906 21.5156 29.7266 21.2344 29.6484 21.1094C29.0234 20 28.4375 19.1328 27.8906 18.5078C27.3594 17.8828 26.7266 17.5156 25.9922 17.4062C25.4609 17.3281 24.9219 17.2812 24.375 17.2656C23.8438 17.2344 23.1719 17.2188 22.3594 17.2188H18.7734V40.3516C18.7734 41.5547 18.9766 42.4531 19.3828 43.0469C19.8047 43.625 20.3516 44.0156 21.0234 44.2188C21.7109 44.4219 22.7266 44.6094 24.0703 44.7812C24.0703 45.3281 24.0547 45.7344 24.0234 46H8.50781L8.46094 44.7812C8.72656 44.6875 9.14062 44.5625 9.70312 44.4062C10.625 44.125 11.3516 43.8594 11.8828 43.6094C12.4141 43.3594 12.8516 42.9766 13.1953 42.4609C13.5547 41.9453 13.7344 41.2422 13.7344 40.3516V17.2188H10.3125ZM54.5684 46.1582C54.3809 46.1934 54.1934 46.2109 54.0059 46.2109C53.7832 46.2109 53.4492 46.1758 53.0039 46.1055C52.5586 46.0352 52.2188 46 51.9844 46H33.9492L33.9141 45.1387C34.2773 44.9395 34.6113 44.7988 34.916 44.7168C35.2324 44.623 35.5781 44.5469 35.9531 44.4883C36.4219 44.4062 36.7617 44.3008 36.9727 44.1719C37.1953 44.043 37.3652 43.7676 37.4824 43.3457C37.5996 42.9121 37.6582 42.2324 37.6582 41.3066V28C37.6582 27.0859 37.582 26.4121 37.4297 25.9785C37.2891 25.5449 37.0781 25.2461 36.7969 25.082C36.5156 24.9062 36.0469 24.7188 35.3906 24.5195C35.2852 24.4844 35.0801 24.4199 34.7754 24.3262C34.4824 24.2324 34.1953 24.127 33.9141 24.0098L33.9492 23.1133H51.8789C52.043 23.1133 52.2188 23.1016 52.4062 23.0781C52.6055 23.0547 52.7461 23.0371 52.8281 23.0254C53.1797 22.9668 53.4961 22.9375 53.7773 22.9375C54.0234 22.9375 54.2402 22.9609 54.4277 23.0078V28.4746L53.5137 28.5098C53.3145 28.3105 53.1504 28.0879 53.0215 27.8418C52.8926 27.5957 52.7461 27.2734 52.582 26.875C52.3477 26.2891 52.1133 25.832 51.8789 25.5039C51.6562 25.1758 51.3223 24.9355 50.877 24.7832C50.2207 24.5723 49.4062 24.4375 48.4336 24.3789C47.4609 24.3203 46.3359 24.291 45.0586 24.291C43.5586 24.291 42.375 24.3438 41.5078 24.4492C41.4609 24.9766 41.4375 25.5801 41.4375 26.2598V33.3965H46.5C47.4258 33.3965 48.1172 33.3262 48.5742 33.1855C49.0312 33.0449 49.3828 32.8164 49.6289 32.5C49.8867 32.1836 50.2383 31.6211 50.6836 30.8125L50.9473 30.3379H51.9492V37.8789L50.9473 37.9316C50.5723 36.9238 50.0918 36.1387 49.5059 35.5762C48.9316 35.0137 48.1582 34.7324 47.1855 34.7324H41.4375V40.6562C41.4375 41.8867 41.5781 42.7949 41.8594 43.3809C42.1523 43.9668 42.5684 44.3477 43.1074 44.5234C43.6582 44.6875 44.4375 44.7695 45.4453 44.7695H47.168C48.6445 44.7695 49.916 44.6055 50.9824 44.2773C52.0605 43.9375 52.8574 43.252 53.373 42.2207L53.6191 41.6758C53.8301 41.2188 54 40.8789 54.1289 40.6562C54.2578 40.4219 54.4219 40.1992 54.6211 39.9883H55.7285L54.5684 46.1582ZM78.9316 46.1582C78.7441 46.1934 78.5566 46.2109 78.3691 46.2109C78.1465 46.2109 77.8125 46.1758 77.3672 46.1055C76.9219 46.0352 76.582 46 76.3477 46H58.3125L58.2773 45.1387C58.6406 44.9395 58.9746 44.7988 59.2793 44.7168C59.5957 44.623 59.9414 44.5469 60.3164 44.4883C60.7852 44.4062 61.125 44.3008 61.3359 44.1719C61.5586 44.043 61.7285 43.7676 61.8457 43.3457C61.9629 42.9121 62.0215 42.2324 62.0215 41.3066V28C62.0215 27.0859 61.9453 26.4121 61.793 25.9785C61.6523 25.5449 61.4414 25.2461 61.1602 25.082C60.8789 24.9062 60.4102 24.7188 59.7539 24.5195C59.6484 24.4844 59.4434 24.4199 59.1387 24.3262C58.8457 24.2324 58.5586 24.127 58.2773 24.0098L58.3125 23.1133H76.2422C76.4062 23.1133 76.582 23.1016 76.7695 23.0781C76.9688 23.0547 77.1094 23.0371 77.1914 23.0254C77.543 22.9668 77.8594 22.9375 78.1406 22.9375C78.3867 22.9375 78.6035 22.9609 78.791 23.0078V28.4746L77.877 28.5098C77.6777 28.3105 77.5137 28.0879 77.3848 27.8418C77.2559 27.5957 77.1094 27.2734 76.9453 26.875C76.7109 26.2891 76.4766 25.832 76.2422 25.5039C76.0195 25.1758 75.6855 24.9355 75.2402 24.7832C74.584 24.5723 73.7695 24.4375 72.7969 24.3789C71.8242 24.3203 70.6992 24.291 69.4219 24.291C67.9219 24.291 66.7383 24.3438 65.8711 24.4492C65.8242 24.9766 65.8008 25.5801 65.8008 26.2598V33.3965H70.8633C71.7891 33.3965 72.4805 33.3262 72.9375 33.1855C73.3945 33.0449 73.7461 32.8164 73.9922 32.5C74.25 32.1836 74.6016 31.6211 75.0469 30.8125L75.3105 30.3379H76.3125V37.8789L75.3105 37.9316C74.9355 36.9238 74.4551 36.1387 73.8691 35.5762C73.2949 35.0137 72.5215 34.7324 71.5488 34.7324H65.8008V40.6562C65.8008 41.8867 65.9414 42.7949 66.2227 43.3809C66.5156 43.9668 66.9316 44.3477 67.4707 44.5234C68.0215 44.6875 68.8008 44.7695 69.8086 44.7695H71.5312C73.0078 44.7695 74.2793 44.6055 75.3457 44.2773C76.4238 43.9375 77.2207 43.252 77.7363 42.2207L77.9824 41.6758C78.1934 41.2188 78.3633 40.8789 78.4922 40.6562C78.6211 40.4219 78.7852 40.1992 78.9844 39.9883H80.0918L78.9316 46.1582ZM87.123 26.8223C86.8184 26.3301 86.502 25.9375 86.1738 25.6445C85.8457 25.3516 85.5176 25.1289 85.1895 24.9766C84.8613 24.8242 84.4219 24.6543 83.8711 24.4668C83.3438 24.291 82.9336 24.1445 82.6406 24.0273V23.1133H88.7754L105.316 40.2168V29.1602C105.316 28.0469 105.158 27.0332 104.842 26.1191C104.713 25.7441 104.537 25.4512 104.314 25.2402C104.092 25.0293 103.852 24.877 103.594 24.7832C103.336 24.6895 102.99 24.5898 102.557 24.4844C102.486 24.4609 102.305 24.4141 102.012 24.3438C101.73 24.2617 101.473 24.1621 101.238 24.0449C101.238 23.7402 101.256 23.4297 101.291 23.1133H110.555V24.0625C110.227 24.2148 109.887 24.3613 109.535 24.502C108.68 24.877 108.088 25.1875 107.76 25.4336C107.432 25.6797 107.197 26.0664 107.057 26.5938C106.928 27.1094 106.857 27.959 106.846 29.1426C106.846 29.7402 106.834 30.625 106.811 31.7969C106.799 32.6875 106.787 33.8008 106.775 35.1367C106.764 36.4609 106.758 38.0137 106.758 39.7949C106.758 40.5684 106.828 41.7168 106.969 43.2402C107.086 44.5293 107.15 45.502 107.162 46.1582C106.939 46.2402 106.652 46.2812 106.301 46.2812C105.926 46.2812 105.592 46.2402 105.299 46.1582C104.455 45.127 103.494 44.0312 102.416 42.8711L88.5293 28.2637V40.6035C88.5293 41.3887 88.6289 42.1797 88.8281 42.9766C88.9219 43.375 89.0918 43.6855 89.3379 43.9082C89.584 44.1191 89.8477 44.2715 90.1289 44.3652C90.4219 44.459 90.8145 44.5527 91.3066 44.6465C91.9863 44.752 92.4902 44.8926 92.8184 45.0684C92.8184 45.373 92.8008 45.6836 92.7656 46H82.8516C82.8281 45.7891 82.8164 45.4727 82.8164 45.0508L83.625 44.8398C84.375 44.6523 84.9668 44.4707 85.4004 44.2949C85.8457 44.1191 86.2266 43.832 86.543 43.4336C86.8711 43.0352 87.0645 42.4902 87.123 41.7988V26.8223ZM144.914 33.2969C144.539 32.7344 144.219 32.3203 143.953 32.0547C143.703 31.7891 143.398 31.5859 143.039 31.4453C142.68 31.3047 142.188 31.2188 141.562 31.1875L140.086 31.0938V40.1172C140.086 41.2422 140.18 42.0703 140.367 42.6016C140.57 43.1328 140.836 43.4844 141.164 43.6562C141.508 43.8281 142.016 43.9688 142.688 44.0781C143.172 44.1562 143.602 44.2422 143.977 44.3359C144.352 44.4297 144.742 44.5781 145.148 44.7812L145.102 46H130.266L130.219 44.7812C130.641 44.5469 131.031 44.3828 131.391 44.2891C131.766 44.1797 132.195 44.0859 132.68 44.0078C133.305 43.9141 133.766 43.7812 134.062 43.6094C134.375 43.4219 134.617 43.0234 134.789 42.4141C134.961 41.8047 135.047 40.8359 135.047 39.5078V21.7422C135.047 20.6328 134.953 19.8047 134.766 19.2578C134.578 18.6953 134.305 18.3125 133.945 18.1094C133.602 17.8906 133.055 17.6641 132.305 17.4297C131.508 17.2109 130.812 16.9688 130.219 16.7031L130.266 15.4844H141.07C143.992 15.4844 146.547 15.6172 148.734 15.8828C150.922 16.1484 152.875 16.8516 154.594 17.9922C156.328 19.1328 157.195 20.8906 157.195 23.2656C157.195 24.7344 156.781 26.0078 155.953 27.0859C155.141 28.1484 154.086 28.9844 152.789 29.5938C151.508 30.2031 150.133 30.6172 148.664 30.8359C148.852 31.0859 149.781 32.3828 151.453 34.7266C152.688 36.4766 153.734 37.9375 154.594 39.1094C155.469 40.2812 156.336 41.3828 157.195 42.4141C157.711 42.9609 158.172 43.3906 158.578 43.7031C158.984 44.0156 159.492 44.2656 160.102 44.4531C160.711 44.6406 161.477 44.7344 162.398 44.7344V46.0469C160.852 46.4219 159.477 46.6094 158.273 46.6094C156.617 46.6094 155.094 46.1016 153.703 45.0859C152.328 44.0703 151.133 42.8672 150.117 41.4766C149.117 40.0859 147.969 38.3125 146.672 36.1562C145.906 34.8438 145.32 33.8906 144.914 33.2969ZM141.258 29.5234C143.258 29.5234 144.984 29.4062 146.438 29.1719C147.891 28.9375 149.133 28.3828 150.164 27.5078C151.211 26.6328 151.734 25.3125 151.734 23.5469C151.734 21.6094 151.172 20.1797 150.047 19.2578C148.938 18.3359 147.633 17.7734 146.133 17.5703C144.633 17.3516 142.789 17.2422 140.602 17.2422H140.086V29.5234H141.258ZM169.289 36.6484L168.955 37.4922C168.428 38.8633 168.012 39.9941 167.707 40.8848C167.402 41.7637 167.25 42.4434 167.25 42.9238C167.25 43.3457 167.402 43.6914 167.707 43.9609C168.023 44.2305 168.381 44.4297 168.779 44.5586C169.189 44.6875 169.688 44.8105 170.273 44.9277L170.607 44.998V46H162.311V45.0859C162.475 44.957 162.639 44.8516 162.803 44.7695C162.979 44.6758 163.195 44.5762 163.453 44.4707C163.863 44.3066 164.191 44.1367 164.438 43.9609C164.695 43.7852 164.924 43.5098 165.123 43.1348C165.24 42.9004 165.357 42.6367 165.475 42.3438C165.604 42.0391 165.686 41.8398 165.721 41.7461L165.932 41.2012L172.506 24.3613C172.553 24.2324 172.588 24.0098 172.611 23.6934C172.623 23.459 172.641 23.2715 172.664 23.1309C172.699 22.9785 172.758 22.8438 172.84 22.7266C173.414 22.7266 173.906 22.7852 174.316 22.9023C174.738 23.0195 175.16 23.2363 175.582 23.5527L183.65 42.9062C183.803 43.2695 183.979 43.5625 184.178 43.7852C184.377 43.9961 184.582 44.1602 184.793 44.2773C185.016 44.3828 185.314 44.5117 185.689 44.6641C186.006 44.7695 186.34 44.9102 186.691 45.0859L186.656 46H176.426L176.391 45.0859C176.941 44.9219 177.41 44.7578 177.797 44.5938C178.195 44.4297 178.553 44.2012 178.869 43.9082C179.186 43.6152 179.344 43.2578 179.344 42.8359C179.344 42.3672 178.758 40.627 177.586 37.6152C177.516 37.4395 177.445 37.2695 177.375 37.1055C177.316 36.9414 177.264 36.7891 177.217 36.6484H169.289ZM173.104 26.4531L169.887 35.1016H176.566L173.104 26.4531ZM192.193 26.8223C191.889 26.3301 191.572 25.9375 191.244 25.6445C190.916 25.3516 190.588 25.1289 190.26 24.9766C189.932 24.8242 189.492 24.6543 188.941 24.4668C188.414 24.291 188.004 24.1445 187.711 24.0273V23.1133H193.846L210.387 40.2168V29.1602C210.387 28.0469 210.229 27.0332 209.912 26.1191C209.783 25.7441 209.607 25.4512 209.385 25.2402C209.162 25.0293 208.922 24.877 208.664 24.7832C208.406 24.6895 208.061 24.5898 207.627 24.4844C207.557 24.4609 207.375 24.4141 207.082 24.3438C206.801 24.2617 206.543 24.1621 206.309 24.0449C206.309 23.7402 206.326 23.4297 206.361 23.1133H215.625V24.0625C215.297 24.2148 214.957 24.3613 214.605 24.502C213.75 24.877 213.158 25.1875 212.83 25.4336C212.502 25.6797 212.268 26.0664 212.127 26.5938C211.998 27.1094 211.928 27.959 211.916 29.1426C211.916 29.7402 211.904 30.625 211.881 31.7969C211.869 32.6875 211.857 33.8008 211.846 35.1367C211.834 36.4609 211.828 38.0137 211.828 39.7949C211.828 40.5684 211.898 41.7168 212.039 43.2402C212.156 44.5293 212.221 45.502 212.232 46.1582C212.01 46.2402 211.723 46.2812 211.371 46.2812C210.996 46.2812 210.662 46.2402 210.369 46.1582C209.525 45.127 208.564 44.0312 207.486 42.8711L193.6 28.2637V40.6035C193.6 41.3887 193.699 42.1797 193.898 42.9766C193.992 43.375 194.162 43.6855 194.408 43.9082C194.654 44.1191 194.918 44.2715 195.199 44.3652C195.492 44.459 195.885 44.5527 196.377 44.6465C197.057 44.752 197.561 44.8926 197.889 45.0684C197.889 45.373 197.871 45.6836 197.836 46H187.922C187.898 45.7891 187.887 45.4727 187.887 45.0508L188.695 44.8398C189.445 44.6523 190.037 44.4707 190.471 44.2949C190.916 44.1191 191.297 43.832 191.613 43.4336C191.941 43.0352 192.135 42.4902 192.193 41.7988V26.8223ZM239.215 29.459C239.062 29.3066 238.898 29.0957 238.723 28.8262C238.547 28.5449 238.377 28.2578 238.213 27.9648C238.178 27.9062 238.084 27.748 237.932 27.4902C237.779 27.2324 237.639 27.0098 237.51 26.8223C237.381 26.6348 237.258 26.4824 237.141 26.3652C236.355 25.5801 235.482 24.9941 234.521 24.6074C233.572 24.2207 232.57 24.0273 231.516 24.0273C229.992 24.0273 228.568 24.4258 227.244 25.2227C225.932 26.0078 224.877 27.1562 224.08 28.668C223.295 30.1797 222.902 31.9727 222.902 34.0469C222.902 36.168 223.283 38.0254 224.045 39.6191C224.818 41.2012 225.908 42.4258 227.314 43.293C228.732 44.1484 230.379 44.5762 232.254 44.5762C233.848 44.5762 235.26 44.248 236.49 43.5918C237.732 42.9238 238.693 41.9453 239.373 40.6562L240.234 40.7793L240.076 44.1016C238.799 44.8164 237.322 45.3906 235.646 45.8242C233.982 46.2461 232.43 46.457 230.988 46.457C228.691 46.457 226.617 45.9824 224.766 45.0332C222.914 44.084 221.455 42.7246 220.389 40.9551C219.322 39.1855 218.789 37.1172 218.789 34.75C218.789 32.5117 219.334 30.4727 220.424 28.6328C221.514 26.793 223.061 25.3398 225.064 24.2734C227.068 23.207 229.383 22.6738 232.008 22.6738C234.41 22.6738 236.848 23.1543 239.32 24.1152L240.041 29.4238L239.215 29.459ZM250.588 41.5176C250.588 42.3848 250.664 43.0234 250.816 43.4336C250.969 43.8438 251.174 44.1133 251.432 44.2422C251.701 44.3711 252.111 44.4883 252.662 44.5938C253.365 44.7109 253.975 44.875 254.49 45.0859L254.455 46H243.135C243.123 45.9062 243.111 45.7832 243.1 45.6309C243.088 45.4785 243.082 45.2969 243.082 45.0859C243.41 44.9453 243.709 44.8398 243.979 44.7695C244.26 44.6992 244.582 44.623 244.945 44.541C245.473 44.4355 245.854 44.3125 246.088 44.1719C246.322 44.0312 246.498 43.7559 246.615 43.3457C246.744 42.9238 246.809 42.2559 246.809 41.3418V27.7539C246.809 26.8984 246.738 26.2656 246.598 25.8555C246.457 25.4336 246.258 25.1523 246 25.0117C245.742 24.8594 245.344 24.7129 244.805 24.5723C244.559 24.5137 244.283 24.4375 243.979 24.3438C243.674 24.25 243.381 24.1387 243.1 24.0098L243.135 23.1133H254.438L254.473 24.0273C253.945 24.2617 253.336 24.4492 252.645 24.5898C252.094 24.707 251.684 24.8418 251.414 24.9941C251.156 25.1348 250.951 25.416 250.799 25.8379C250.658 26.2598 250.588 26.9043 250.588 27.7715V33.4844H263.139V27.5957C263.139 26.7988 263.068 26.207 262.928 25.8203C262.787 25.4336 262.594 25.1699 262.348 25.0293C262.102 24.877 261.721 24.7305 261.205 24.5898C260.572 24.4258 260.027 24.2324 259.57 24.0098L259.605 23.1133H270.627L270.662 24.0273C270.146 24.2031 269.648 24.3496 269.168 24.4668C268.523 24.6426 268.061 24.8125 267.779 24.9766C267.498 25.1406 267.281 25.4395 267.129 25.873C266.988 26.3066 266.918 26.9805 266.918 27.8945V41.3066C266.918 42.2441 266.982 42.9297 267.111 43.3633C267.24 43.7852 267.434 44.0723 267.691 44.2246C267.961 44.3652 268.4 44.5 269.01 44.6289C269.689 44.7812 270.24 44.9336 270.662 45.0859V46H259.605L259.57 45.0859C259.863 44.9219 260.127 44.8047 260.361 44.7344C260.607 44.6641 260.936 44.5879 261.346 44.5059C261.814 44.4238 262.16 44.3184 262.383 44.1895C262.617 44.0605 262.799 43.8027 262.928 43.416C263.068 43.0176 263.139 42.4023 263.139 41.5703V35.0137H250.588V41.5176Z" fill="white"/>
</svg>
